<?xml version="1.0" encoding="iso-8859-1"?>
<!-- Generator: Adobe Illustrator 19.0.0, SVG Export Plug-In . SVG Version: 6.00 Build 0)  -->
<svg version="1.1" id="Capa_1" xmlns="http://www.w3.org/2000/svg" xmlns:xlink="http://www.w3.org/1999/xlink" x="0px" y="0px"
	 viewBox="0 0 512 512" style="enable-background:new 0 0 512 512;" xml:space="preserve">
<circle style="fill:#AF9F82;" cx="256" cy="433.426" r="70.97"/>
<path style="fill:#93856F;" d="M256,362.455c-12.932,0-25.043,3.476-35.485,9.518v46.244c0,19.567,15.919,35.485,35.485,35.485
	c19.567,0,35.485-15.919,35.485-35.485v-46.244C281.043,365.931,268.932,362.455,256,362.455z"/>
<path style="fill:#EFECF0;" d="M256,473.98c-22.362,0-40.554-18.193-40.554-40.554s18.193-40.554,40.554-40.554
	s40.554,18.193,40.554,40.554S278.362,473.98,256,473.98z"/>
<path style="fill:#D4D4D4;" d="M291.485,413.821c-6.923-12.48-20.232-20.949-35.485-20.949c-15.254,0-28.562,8.469-35.485,20.949
	v4.397c0,19.567,15.919,35.485,35.485,35.485c19.567,0,35.485-15.919,35.485-35.485V413.821z"/>
<g>
	<path style="fill:#FDD844;" d="M423.287,260.055h-30.416v25.347c0,8.399-6.809,15.208-15.208,15.208H271.208v-29.402h-30.416
		v29.402H134.337c-8.399,0-15.208-6.809-15.208-15.208v-25.347H88.713v25.347c0,25.198,20.426,45.624,45.624,45.624h106.455v87.192
		c0,8.399,6.809,15.208,15.208,15.208l0,0c8.399,0,15.208-6.809,15.208-15.208v-87.192h106.455
		c25.197,0,45.624-20.426,45.624-45.624V260.055z"/>
	<rect x="88.713" y="178.947" style="fill:#FDD844;" width="30.416" height="50.693"/>
</g>
<polygon style="fill:#C5BCF4;" points="332.04,178.947 484.119,178.947 453.703,7.604 362.455,7.604 "/>
<rect x="392.871" y="178.947" style="fill:#FDD844;" width="30.416" height="50.693"/>
<polygon style="fill:#C5BCF4;" points="27.881,178.947 179.96,178.947 149.545,7.604 58.297,7.604 "/>
<circle style="fill:#FE635F;" cx="256" cy="215.446" r="25.347"/>
<g>
	<polygon style="fill:#A199F2;" points="335.639,158.669 332.04,178.947 484.119,178.947 480.52,158.669 	"/>
	<polygon style="fill:#A199F2;" points="31.48,158.669 27.881,178.947 179.96,178.947 176.361,158.669 	"/>
</g>
<g>
	<rect x="88.713" y="178.947" style="fill:#FDAB08;" width="30.416" height="20.277"/>
	<rect x="392.871" y="178.947" style="fill:#FDAB08;" width="30.416" height="20.277"/>
	<rect x="88.713" y="260.055" style="fill:#FDAB08;" width="30.416" height="20.277"/>
	<rect x="392.871" y="260.055" style="fill:#FDAB08;" width="30.416" height="20.277"/>
	<path style="fill:#FDAB08;" d="M240.792,413.149v5.069c0,8.399,6.809,15.208,15.208,15.208c8.399,0,15.208-6.809,15.208-15.208
		v-5.069H240.792z"/>
</g>
<path style="fill:#FFFFFF;" d="M83.137,120.143H67.929v-15.208h15.208V120.143z M83.137,89.727H67.929V49.172h15.208V89.727z"/>
<rect x="189.085" y="293.006" width="15.208" height="15.208"/>
<rect x="158.669" y="293.006" width="15.208" height="15.208"/>
<path d="M81.109,237.244h45.624v-50.693h62.3L155.918,0H51.924L18.809,186.551h62.3V237.244z M111.525,222.036H96.317v-35.485
	h15.208V222.036z M36.953,171.343L64.67,15.208h78.501l27.717,156.135h-44.156H81.109H36.953z"/>
<path d="M451.168,244.848c0,4.193-3.411,7.604-7.604,7.604h-12.673h-45.624h-12.673c-4.193,0-7.604-3.411-7.604-7.604v-5.069
	h-15.208v5.069c0,12.579,10.234,22.812,22.812,22.812h12.673v17.743c0,4.193-3.411,7.604-7.604,7.604h-98.852v-29.402h-15.208
	v-16.103c14.513-3.443,25.347-16.504,25.347-32.055c0-18.168-14.781-32.951-32.951-32.951s-32.95,14.782-32.95,32.951
	c0,15.552,10.833,28.612,25.347,32.055v16.103h-15.208v29.402h-13.687v15.208h28.895v-29.402h15.208v29.402h114.059
	c12.578,0,22.812-10.233,22.812-22.812v-17.743h15.208v17.743c0,20.965-17.055,38.02-38.02,38.02H263.604v94.796
	c0,4.193-3.411,7.604-7.604,7.604c-4.193,0-7.604-3.411-7.604-7.604v-94.796H134.337c-20.965,0-38.02-17.055-38.02-38.02v-17.743
	h15.208v17.743c0,12.579,10.234,22.812,22.812,22.812h9.125v-15.208h-9.125c-4.193,0-7.604-3.411-7.604-7.604v-17.743h12.673
	c12.578,0,22.812-10.233,22.812-22.812v-5.069H147.01v5.069c0,4.193-3.411,7.604-7.604,7.604h-12.673H81.109H68.436
	c-4.193,0-7.604-3.411-7.604-7.604v-5.069H45.624v5.069c0,12.579,10.234,22.812,22.812,22.812h12.673v17.743
	c0,29.35,23.878,53.228,53.228,53.228h98.851v79.588c0,12.579,10.234,22.812,22.812,22.812c12.578,0,22.812-10.233,22.812-22.812
	V338.63h98.852c29.349,0,53.228-23.877,53.228-53.228v-17.743h12.673c12.578,0,22.812-10.233,22.812-22.812v-5.069h-15.208V244.848z
	 M238.257,215.446c0-9.783,7.96-17.743,17.743-17.743s17.743,7.96,17.743,17.743c0,9.783-7.96,17.743-17.743,17.743
	C246.217,233.188,238.257,225.228,238.257,215.446z"/>
<path d="M385.267,237.244h45.624v-50.693h62.3L460.076,0H356.082l-33.115,186.551h62.3V237.244z M415.683,222.036h-15.208v-35.485
	h15.208V222.036z M341.112,171.343l27.717-156.135h78.501l27.717,156.135h-44.156h-45.624H341.112z"/>
<rect x="359.414" y="425.822" width="15.208" height="15.208"/>
<rect x="420.246" y="425.822" width="15.208" height="15.208"/>
<rect x="389.83" y="425.822" width="15.208" height="15.208"/>
<rect x="76.547" y="425.822" width="15.208" height="15.208"/>
<rect x="137.378" y="425.822" width="15.208" height="15.208"/>
<rect x="106.962" y="425.822" width="15.208" height="15.208"/>
<path d="M300.905,368.972l-8.701,12.474c17.008,11.862,27.162,31.295,27.162,51.981c0,34.94-28.426,63.366-63.366,63.366
	s-63.366-28.427-63.366-63.366c0-20.686,10.155-40.118,27.162-51.982l-8.701-12.474c-21.082,14.706-33.669,38.801-33.669,64.455
	C177.426,476.751,212.675,512,256,512s78.574-35.249,78.574-78.574C334.574,407.772,321.987,383.677,300.905,368.972z"/>
<path d="M303.375,442.101c0.52-2.846,0.784-5.766,0.784-8.676c0-3.032-0.288-6.078-0.858-9.053l-14.936,2.855
	c0.389,2.036,0.586,4.12,0.586,6.197c0,1.995-0.18,3.994-0.536,5.94L303.375,442.101z"/>
<path d="M208.699,424.373c-0.57,2.975-0.858,6.02-0.858,9.053c0,26.554,21.604,48.158,48.158,48.158
	c16.724,0,32.009-8.498,40.888-22.732l-12.903-8.049c-6.083,9.752-16.544,15.574-27.986,15.574
	c-18.169,0-32.951-14.782-32.951-32.95c0-2.076,0.197-4.161,0.586-6.197L208.699,424.373z"/>
<g>
</g>
<g>
</g>
<g>
</g>
<g>
</g>
<g>
</g>
<g>
</g>
<g>
</g>
<g>
</g>
<g>
</g>
<g>
</g>
<g>
</g>
<g>
</g>
<g>
</g>
<g>
</g>
<g>
</g>
</svg>
